<svg width="81" height="81" viewBox="0 0 81 81" fill="none" xmlns="http://www.w3.org/2000/svg">
<g filter="url(#filter0_d)">
<path d="M40.5036 68.9125L54.9651 65.2605C63.2197 58.4062 68.4774 48.0676 68.4774 36.4998C68.4774 18.657 55.9717 3.73518 39.2472 0.020874C19.6689 0.681153 4 16.7605 4 36.4996C4 46.6386 8.13477 55.8113 14.8091 62.4255L40.5036 68.9125Z" fill="#CBE2FF"/>
<path d="M67.7201 36.5C67.7201 48.4644 61.9627 59.0831 53.0681 65.7398L66.1897 62.4261C72.8645 55.8119 77 46.6393 77 36.5C77 16.3416 60.6584 0 40.5 0C38.9282 0 37.3795 0.0995195 35.86 0.292285C53.8276 2.57182 67.7201 17.9135 67.7201 36.5Z" fill="#BED8FB"/>
<path d="M49.5709 13.8233C49.5709 11.9591 48.0597 10.4479 46.1955 10.4479H34.5637C30.2733 10.4479 26.7953 13.9259 26.7953 18.2162V26.8412H54.2001V18.3386C54.2001 16.4744 52.6889 14.9632 50.8247 14.9632H50.7109C50.0813 14.9632 49.5709 14.4529 49.5709 13.8233Z" fill="#365E7D"/>
<path d="M50.8248 14.9631H50.711C50.0814 14.9631 49.5709 14.4527 49.5709 13.823C49.5709 11.9588 48.0597 10.4476 46.1955 10.4476H44.9202V26.841H54.2V18.3383C54.2002 16.4744 52.6888 14.9631 50.8248 14.9631Z" fill="#2B4D66"/>
<path d="M64.6021 53.0896C63.7097 52.2082 62.6058 51.5266 61.3527 51.1299L51.3878 47.9749L40.5022 47.5924L29.6121 47.9749L19.6472 51.1299C16.2761 52.1972 13.985 55.3257 13.985 58.8618V61.5842C20.3709 68.3321 29.3051 72.6437 39.2474 72.979C50.3868 70.5049 59.6545 63.059 64.6021 53.0896Z" fill="#4A80AA"/>
<path d="M67.015 61.5841V58.8617C67.015 56.3614 65.8687 54.0661 64.0059 52.5579C58.7147 63.3405 48.2621 71.1312 35.8687 72.7066C37.3646 72.8961 38.8882 72.9972 40.4349 72.9999C41.9209 72.9976 43.3874 72.9115 44.8297 72.7458C53.5314 71.7175 61.2953 67.6281 67.015 61.5841Z" fill="#407093"/>
<path d="M41.3263 72.4535C43.5347 68.0691 49.2853 55.6197 47.6455 47.8432L40.5022 45.0631L33.3522 47.8434C31.6618 55.8598 37.8249 68.8419 39.8653 72.8359C40.3561 72.7181 40.8433 72.5905 41.3263 72.4535Z" fill="#E4F6FF"/>
<path d="M45.0906 68.9777L42.1942 57.5833H38.8056L35.9164 68.9466L39.4891 72.9241C40.396 72.7164 41.2904 72.4756 42.171 72.2031L45.0906 68.9777Z" fill="#E28086"/>
<path d="M39.545 72.9864C39.8408 72.9941 40.1372 72.9994 40.4348 72.9999C40.7791 72.9994 41.1223 72.9934 41.4645 72.9838L43.3047 70.9508C41.8563 71.459 40.3662 71.8784 38.8408 72.2025L39.545 72.9864Z" fill="#DD636E"/>
<path d="M46.5985 46.7916V40.3662H34.3967V46.7916C34.3967 50.161 40.4976 53.8416 40.4976 53.8416C40.4976 53.8416 46.5985 50.161 46.5985 46.7916Z" fill="#FFDDCE"/>
<path d="M54.2001 25.7093H51.8676C50.5705 25.7093 49.519 24.6578 49.519 23.3607V22.0753C49.519 20.3856 47.8658 19.191 46.2615 19.7212C42.5198 20.9579 38.4797 20.9582 34.7379 19.7221L34.7335 19.7206C33.1292 19.1907 31.4763 20.3853 31.4763 22.0749V23.3608C31.4763 24.658 30.4248 25.7095 29.1276 25.7095H26.7953V29.5503C26.7953 30.5316 27.5909 31.3274 28.5724 31.3274C28.8821 31.3274 29.134 31.5699 29.1535 31.879C29.5282 37.8199 34.4624 42.523 40.4978 42.523C46.5331 42.523 51.4673 37.8199 51.842 31.879C51.8615 31.57 52.1135 31.3274 52.4231 31.3274C53.4045 31.3274 54.2002 30.5318 54.2002 29.5503V25.7093H54.2001Z" fill="#FFDDCE"/>
<path d="M51.8677 25.7093C50.5705 25.7093 49.519 24.6578 49.519 23.3606V22.0752C49.519 20.3855 47.8658 19.1909 46.2615 19.7211C45.8184 19.8676 45.3708 19.9953 44.9203 20.1071V32.7925C44.8578 36.9199 42.5962 40.512 39.2563 42.4534C39.6643 42.4977 40.078 42.5226 40.4976 42.5226C46.533 42.5226 51.4672 37.8196 51.8419 31.8786C51.8614 31.5697 52.1133 31.327 52.423 31.327C53.4044 31.327 54.2001 30.5314 54.2001 29.5499V25.7091H51.8677V25.7093Z" fill="#FFCBBE"/>
<path d="M34.3968 45.0631L29.6121 48.9508L34.6297 55.1548C35.2401 55.749 36.2008 55.7855 36.8547 55.2395L40.628 52.0875L34.3968 45.0631Z" fill="#F4FBFF"/>
<path d="M46.6009 45.0631L40.628 52.0875L44.1745 55.1199C44.8242 55.6753 45.7895 55.6474 46.406 55.0553L51.3876 48.9508L46.6009 45.0631Z" fill="#F4FBFF"/>
<path d="M34.3967 45.0631L27.3739 48.5134C26.8392 48.776 26.6245 49.4264 26.8976 49.9558L28.2734 52.6235C28.63 53.3147 28.4984 54.157 27.9481 54.7065C27.6648 54.9893 27.3579 55.2955 27.092 55.561C26.6161 56.0361 26.4452 56.738 26.6548 57.377C28.3159 62.441 36.3109 70.1845 39.3365 72.9862C39.54 72.9916 39.7439 72.9953 39.9482 72.9976C37.754 68.7298 29.9788 52.5155 34.3967 45.0631Z" fill="#365E7D"/>
<path d="M53.0495 54.7064C52.499 54.1569 52.3676 53.3145 52.7241 52.6233L54.1 49.9557C54.3731 49.4263 54.1583 48.7758 53.6237 48.5132L46.6008 45.0631C51.0176 52.5135 43.2478 68.721 41.0513 72.9942C41.2577 72.9906 41.4637 72.9855 41.6693 72.9786C44.7013 70.1705 52.6832 62.4364 54.3428 57.3772C54.5524 56.7381 54.3815 56.0362 53.9055 55.5611C53.6396 55.2955 53.3328 54.9891 53.0495 54.7064Z" fill="#365E7D"/>
<path d="M40.628 52.0876L36.9124 55.1907L38.8056 57.5833H42.1942L44.0875 55.0496L40.628 52.0876Z" fill="#DD636E"/>
</g>
<defs>
<filter id="filter0_d" x="0" y="0" width="81" height="81" filterUnits="userSpaceOnUse" color-interpolation-filters="sRGB">
<feFlood flood-opacity="0" result="BackgroundImageFix"/>
<feColorMatrix in="SourceAlpha" type="matrix" values="0 0 0 0 0 0 0 0 0 0 0 0 0 0 0 0 0 0 127 0"/>
<feOffset dy="4"/>
<feGaussianBlur stdDeviation="2"/>
<feColorMatrix type="matrix" values="0 0 0 0 0 0 0 0 0 0 0 0 0 0 0 0 0 0 0.25 0"/>
<feBlend mode="normal" in2="BackgroundImageFix" result="effect1_dropShadow"/>
<feBlend mode="normal" in="SourceGraphic" in2="effect1_dropShadow" result="shape"/>
</filter>
</defs>
</svg>
