<svg width="62" height="62" viewBox="0 0 62 62" fill="none" xmlns="http://www.w3.org/2000/svg">
<g clip-path="url(#clip0)">
<path d="M29.7842 0H31.6077V10.9412H29.7842V0Z" fill="#04303E"/>
<path d="M27.9606 0H29.7842V10.9412H27.9606V0Z" fill="#07485E"/>
<path d="M29.7842 1.82349H40.7254V5.47055H29.7842V1.82349Z" fill="#B3D1D6"/>
<path d="M18.8431 1.82349H29.7843V5.47055H18.8431V1.82349Z" fill="#E5EAEE"/>
<path d="M57.1371 34.6471V36.4706H44.3724V34.6471C44.3724 32.6363 42.7361 31 40.7254 31H29.7842V9.11768H37.0783V15.2411C37.0783 16.0337 37.3883 16.7765 37.9512 17.3333C38.514 17.8901 39.2592 18.1928 40.0519 18.1843L40.667 18.177C49.7494 18.177 57.1371 25.5659 57.1371 34.6471Z" fill="#B3D1D6"/>
<path d="M29.7842 9.11768V31H9.72534V18.2353H19.0448C20.9449 18.2353 22.49 16.6902 22.49 14.7901V9.11768H29.7842Z" fill="#E5EAEE"/>
<path d="M59.5685 53.4901C59.5685 58.1826 55.7513 61.9999 51.0587 61.9999L48.9313 51.0587L51.0587 39.8975L52.396 41.3417C52.4677 41.4183 54.1563 43.2467 55.8692 45.5686C58.3589 48.9422 59.5685 51.5328 59.5685 53.4901Z" fill="#6AA8FF"/>
<path d="M51.0588 39.8975V61.9999C46.3662 61.9999 42.549 58.1826 42.549 53.4901C42.549 51.5328 43.7586 48.9422 46.2483 45.5686C47.9612 43.2467 49.6498 41.4183 49.7215 41.3417L51.0588 39.8975Z" fill="#7ED7F5"/>
<path d="M7.36015 12.7646H2.43127V36.4705H7.36015C10.6753 36.4705 13.3724 33.7734 13.3724 30.4582V18.7768C13.3724 15.4618 10.6753 12.7646 7.36015 12.7646Z" fill="#B3D1D6"/>
</g>
<defs>
<clipPath id="clip0">
<rect width="62" height="62" fill="white"/>
</clipPath>
</defs>
</svg>
